<?xml version="1.0" encoding="UTF-8"?>
<svg width="176px" height="170px" viewBox="0 0 176 170" version="1.1" xmlns="http://www.w3.org/2000/svg" xmlns:xlink="http://www.w3.org/1999/xlink">
    <!-- Generator: Sketch 59 (86127) - https://sketch.com -->
    <title>Person Playing </title>
    <desc>Created with Sketch.</desc>
    <g id="Logo" stroke="none" stroke-width="1" fill="none" fill-rule="evenodd">
        <g id="Person-Playing-" transform="translate(0.000000, -4.000000)">
            <path d="M41.4900257,109.145013 C58.3890352,109.145013 73.3120257,171.537751 73.4410257,171.967751 C73.6150257,172.539751 73.2910257,173.144751 72.7190257,173.318751 C72.1768829,173.484694 67.0102682,173.583964 66.4215682,173.594767 L66.3670257,173.595751 C66.3670257,173.595751 49.3564483,118.097048 41.4900257,118.097048 C36.245744,118.097048 28.8364107,136.347949 19.2620257,172.849751 C19.1370257,173.339751 13.6960257,172.666751 13.2130257,172.666751 C13.1240257,172.666751 13.0350257,172.655751 12.9450257,172.633751 C12.3650257,172.486751 12.0140257,171.896751 12.1610257,171.316751 C20.4476861,129.868926 30.2240194,109.145013 41.4900257,109.145013 Z M108.447026,87.4847515 L108.447026,94.4357515 L161.363026,94.4357515 L161.363026,87.4847515 L169.363026,87.4847515 L169.363026,171.704751 L161.363026,171.704751 L161.363026,102.435751 L108.447026,102.435751 L108.447026,171.704751 L100.447026,171.704751 L100.447026,87.4847515 L108.447026,87.4847515 Z M138.106026,54.7107515 L140.289026,55.2307515 L129.894026,85.5827515 L129.892561,85.5817515 L97.7720257,85.5827515 L97.7720257,83.4987515 L128.045561,83.4977515 L138.106026,54.7107515 Z" id="Combined-Shape" fill="#C5CFD6"></path>
            <path d="M10.1080257,60.6767515 C10.1080257,60.6767515 18.2090257,109.779751 29.9670257,112.176751 C31.7760257,112.546751 33.2210257,113.919751 35.0680257,113.897751 L68.4230257,113.495751 L68.4430777,113.491314 C68.9803989,113.373949 80.15058,111.028053 81.8740257,118.451751 C83.3920257,124.984877 67.4940257,124.728751 67.4940257,124.728751 L32.5370257,124.942751 C32.5370257,124.942751 19.3670257,126.460751 12.8570257,111.271751 C6.34902573,96.0837515 0.0800257338,56.3047515 0.0800257338,56.3047515 C0.0800257338,56.3047515 -0.858974266,50.8317515 3.69602573,50.0367515 C9.05502573,49.1017515 10.1080257,60.6767515 10.1080257,60.6767515 Z M175.893026,85.5827515 L175.893026,93.5827515 L92.6780257,93.5827515 L92.6780257,85.5827515 L175.893026,85.5827515 Z M55.0270257,43.6067515 L69.7800257,71.0127515 L100.431026,71.9897515 L100.431026,82.0717515 L68.0590257,83.4867515 C63.7830257,83.6737515 59.7170257,81.6267515 57.3210257,78.0807515 L42.5870257,51.6397515 L55.0270257,43.6067515 Z" id="Combined-Shape" fill="#E87614"></path>
            <path d="M99.4980257,73.8417515 L110.539026,73.0837515 C111.435026,73.0217515 112.297026,73.4327515 112.813026,74.1677515 L118.986026,83.4987515 L113.736026,83.7447515 L110.775026,79.1907515 C110.775026,79.1907515 102.245026,81.3227515 99.0930257,79.1907515 L99.4980257,73.8417515" id="Fill-6" fill="#A47F5E"></path>
            <polyline id="Fill-9" fill="#B28B67" points="84.3640257 153.238751 86.1000257 165.359751 94.8190257 164.817751 93.5650257 152.303751 84.3640257 153.238751"></polyline>
            <path d="M84.1480257,164.131751 C84.3370257,163.564751 85.0190257,163.330751 85.5060257,163.677751 C86.4610257,164.359751 88.1550257,165.164751 90.5870257,164.855751 C93.1130257,164.534751 94.0050257,163.189751 94.3190257,162.238751 C94.4840257,161.738751 95.0170257,161.465751 95.5070257,161.657751 L111.223026,167.822751 C112.178026,168.196751 112.944026,168.935751 113.354026,169.875751 C113.737026,170.759751 113.099026,171.749751 112.136026,171.763751 L85.5170257,172.155751 C84.4700257,172.171751 83.6230257,171.305751 83.6630257,170.258751 L83.8560257,165.120751 C83.8580257,165.034751 83.8740257,164.950751 83.9010257,164.869751 L84.1480257,164.131751" id="Fill-10" fill="#FFFFFF"></path>
            <path d="M53.2210257,45.5007515 L52.4350257,45.1177515 C49.8350257,43.8467515 48.7570257,40.7097515 50.0260257,38.1087515 L58.4670257,20.8307515 L67.8390257,25.4087515 L58.0780257,44.7617515 C57.0320257,46.9037515 55.3620257,46.5467515 53.2210257,45.5007515" id="Fill-12" fill="#B28B67"></path>
            <path d="M74.2882577,28.7666699 C72.0043821,38.2146766 69.4203046,40.8033053 67.8390257,41.3418052 C65.5337471,42.126861 61.6807047,38.9212923 60.6230257,39.7167515 C58.3475822,41.4280669 54.2242696,36.46447 48.2530879,24.8259609 L70.7641555,18.8125 C74.6361407,19.1499421 75.8108414,22.4679987 74.2882577,28.7666699 Z" id="Fill-13" fill="#B28B67"></path>
            <path d="M64.1604099,29.6445303 C63.6756949,30.637041 62.4783527,31.0479122 61.4858105,30.5632126 C60.4939103,30.078513 60.0823841,28.8812086 60.5670991,27.8886978 C61.051814,26.896829 62.2491563,26.4853158 63.2410565,26.9700154 C64.2335986,27.4547151 64.6451249,28.6520195 64.1604099,29.6445303" id="Fill-19" fill="#B28B67"></path>
            <path d="M59.6960257,50.0337515 C59.6960257,50.0337515 59.4820257,45.6247515 58.0820257,44.0907515 C56.6820257,42.5577515 49.2260257,38.3367515 49.2260257,38.3367515 C49.2260257,38.3367515 38.4960257,41.4457515 31.9070257,53.7057515 C26.7720257,63.2577515 21.9450257,87.4297515 21.9450257,87.4297515 L52.9090257,91.9177515 C55.5720257,73.8577515 60.5790257,65.6267515 59.6960257,50.0337515" id="Fill-22" fill="#F19B22"></path>
            <path d="M96.0880257,75.4837515 L107.129026,74.7247515 C108.024026,74.6637515 108.887026,75.0747515 109.402026,75.8087515 L115.062026,83.8627515 L109.776026,84.5407515 L107.365026,80.8317515 C107.365026,80.8317515 98.8360257,82.9647515 95.6830257,80.8317515 L96.0880257,75.4837515" id="Fill-24" fill="#B28B67"></path>
            <path d="M48.7580257,45.6497515 L65.4180257,73.7587515 L97.0210257,74.6257515 L97.0210257,83.7137515 L62.9250257,85.2037515 C59.7210257,85.3437515 56.6730257,83.8097515 54.8770257,81.1517515 L36.3170257,53.6837515 L48.7580257,45.6497515" id="Fill-25" fill="#F19B22"></path>
            <path d="M21.9450257,87.4297515 L82.8440257,96.2567515 C87.5070257,96.9327515 91.1040257,100.708751 91.5520257,105.398751 L96.0880257,157.267751 L82.4850257,158.151751 L75.9490257,113.195751 L37.7050257,114.190751 C27.3230257,114.190751 19.3620257,104.971751 20.8750257,94.7007515 L21.9450257,87.4297515" id="Fill-27" fill="#5C62AB"></path>
            <path d="M60.6230257,39.7167515 C60.6230257,39.7167515 57.7290257,38.0067515 57.7290257,34.4077515 C57.7290257,34.4077515 55.9290257,38.3037515 59.6020257,41.7417515 L60.6230257,39.7167515" id="Fill-30" fill="#B28B67"></path>
            <path d="M70.53748,6.86363102 C65.5420301,3.32573868 53.6466232,2.84828501 46.6951579,10.4189571 C39.7436925,17.9896292 42.4128586,28.3374506 45.7074431,31.9065903 C47.9038327,34.2860168 51.3124817,35.8398956 55.9333899,36.5682265 C56.493421,33.0465369 57.1800541,29.9241654 57.993289,27.201112 C55.1519558,25.8085656 58.3209995,21.6227417 60.6919283,24.2392727 C74.5276546,12.3696021 74.0822524,19.0419127 75.1032612,19.2037371 C76.2892216,16.6190511 75.5329299,10.4015234 70.53748,6.86363102 Z" id="hair" fill="#191847" transform="translate(58.963965, 20.481060) rotate(14.000000) translate(-58.963965, -20.481060) "></path>
        </g>
    </g>
</svg>